<svg width="46" height="46" viewBox="0 0 46 46" fill="none" xmlns="http://www.w3.org/2000/svg">
<path d="M26.4342 26.7336H19.2342C18.7422 26.7336 18.3342 26.3256 18.3342 25.8336C18.3342 25.3416 18.7422 24.9336 19.2342 24.9336H26.4342C26.9262 24.9336 27.3342 25.3416 27.3342 25.8336C27.3342 26.3256 26.9262 26.7336 26.4342 26.7336Z" fill="#023E8A"/>
<path d="M22.8338 30.334C22.3418 30.334 21.9338 29.926 21.9338 29.434V22.234C21.9338 21.742 22.3418 21.334 22.8338 21.334C23.3258 21.334 23.7338 21.742 23.7338 22.234V29.434C23.7338 29.926 23.3258 30.334 22.8338 30.334Z" fill="#023E8A"/>
<path d="M28.6668 42.9724H17.3335C7.0768 42.9724 2.69458 38.5902 2.69458 28.3335V17.0002C2.69458 6.74355 7.0768 2.36133 17.3335 2.36133H26.7779C27.5524 2.36133 28.1946 3.00355 28.1946 3.77799C28.1946 4.55244 27.5524 5.19466 26.7779 5.19466H17.3335C8.62569 5.19466 5.52791 8.29244 5.52791 17.0002V28.3335C5.52791 37.0413 8.62569 40.1391 17.3335 40.1391H28.6668C37.3746 40.1391 40.4724 37.0413 40.4724 28.3335V18.8891C40.4724 18.1147 41.1146 17.4724 41.889 17.4724C42.6635 17.4724 43.3057 18.1147 43.3057 18.8891V28.3335C43.3057 38.5902 38.9235 42.9724 28.6668 42.9724Z" fill="#023E8A"/>
<path d="M41.8891 20.3049H34.3336C27.8736 20.3049 25.3613 17.7927 25.3613 11.3327V3.77716C25.3613 3.21049 25.7013 2.6816 26.2302 2.47383C26.7591 2.24716 27.3635 2.37938 27.7791 2.77605L42.8902 17.8872C43.2869 18.2838 43.4191 18.9072 43.1924 19.436C42.9658 19.9649 42.4558 20.3049 41.8891 20.3049ZM28.1947 7.19605V11.3327C28.1947 16.206 29.4602 17.4716 34.3336 17.4716H38.4702L28.1947 7.19605Z" fill="#023E8A"/>
</svg>
