<svg width="125" height="125" viewBox="0 0 125 125" fill="none" xmlns="http://www.w3.org/2000/svg">
<g id="Objects" clip-path="url(#clip0_188_641)">
<path id="Vector" d="M62.5 124.678C47.0918 124.659 32.2398 118.918 20.8252 108.568C9.41056 98.2178 2.24694 83.9972 0.72395 68.6644C-0.799037 53.3317 3.42719 37.9797 12.5828 25.5867C21.7384 13.1936 35.1707 4.64284 50.2741 1.59312C65.3775 -1.4566 81.0753 1.21212 94.3223 9.08158C107.569 16.951 117.421 29.4603 121.967 44.1827C126.513 58.9051 125.429 74.7911 118.924 88.7592C112.42 102.727 100.96 113.782 86.766 119.778C79.0893 123.027 70.8359 124.694 62.5 124.678Z" fill="#38CFBB"/>
<path id="Vector_2" d="M29.8668 70.4529C33.2298 75.9181 39.0394 84.5364 43.5331 90.1991C45.653 92.8707 49.4168 93.119 51.8907 90.77C66.1196 77.2655 79.3332 60.2278 95.14 36.6369C95.3566 36.314 95.5032 35.9493 95.5704 35.5664C95.6375 35.1834 95.6238 34.7906 95.5302 34.4132C95.4365 34.0359 95.2648 33.6823 95.0263 33.3753C94.7878 33.0682 94.4877 32.8144 94.1452 32.6303C93.606 32.3406 92.9863 32.2368 92.3821 32.3347C91.7779 32.4327 91.2228 32.7271 90.8027 33.1723C73.2588 51.7467 64.2631 60.575 46.807 75.0975C42.6087 72.3526 38.5534 69.395 34.6568 66.2364C34.3187 65.9631 33.929 65.7608 33.511 65.6414C33.093 65.522 32.6552 65.4881 32.2237 65.5416C31.7923 65.5952 31.3761 65.735 30.9999 65.9529C30.6237 66.1709 30.2953 66.4623 30.0342 66.8099C29.6438 67.3302 29.419 67.9559 29.3892 68.6056C29.3593 69.2554 29.5257 69.8991 29.8668 70.4529Z" fill="white"/>
</g>
<defs>
<clipPath id="clip0_188_641">
<rect width="124.677" height="124.677" fill="white" transform="translate(0.161621)"/>
</clipPath>
</defs>
</svg>
